<?xml version="1.0" encoding="UTF-8"?>
<svg xmlns="http://www.w3.org/2000/svg" viewBox="0 0 469 316">
  <circle cx="1337.41" cy="1708.86" r="26.888" fill="#00e7c3" transform="matrix(.83525 0 0 .83558 -978.221 -1316.757)" />
  <path d="M151.923 138.767c6.089 11.175 16.151 15.57 26.602 15.57 16.77 0 37.314-28.202 50.471-51.03 17.03-29.57 35.946-59.599 63.328-59.599 20.933 0 41.866 13.002 50.57 38.707a30.725 30.725 0 00-11.57-2.237 30.803 30.803 0 00-13.146 2.926c-5.95-12.593-16.53-17.476-27.561-17.476-16.78 0-32.393 20.522-50.111 50.101-19.017 31.737-36.306 60.527-63.697 60.527-20.185 0-40.369-12.093-49.583-36 .11.03.26.06.44.08a30.81 30.81 0 0010.291 1.757c5.021 0 9.773-1.198 13.966-3.326z" fill="#00e7c3" />
  <path d="M128.704 81.586c8.794-25.155 29.338-37.878 49.881-37.878 27.172 0 45.07 27.542 65.305 54.935 15.233 20.641 32.322 48.024 48.973 48.024 10.092 0 13.097-2.078 20.444-10.356a30.865 30.865 0 0018.018 5.782c3.613 0 7.087-.62 10.321-1.758.32-.01.57-.03.74-.08-9.155 23.908-31.635 37.09-51.66 37.09-27.171 0-45.429-27.143-64.565-54.216-19.855-28.101-34.718-49.272-51.359-49.831-7.537-.25-14.454 4.324-19.855 11.963a30.782 30.782 0 00-16.99-5.083c-3.224 0-6.328.49-9.253 1.408z" fill="#00e7c3" />
  <circle cx="1337.41" cy="1708.86" r="26.888" fill="#00e7c3" transform="matrix(.83525 0 0 .83558 -785.753 -1316.757)" />
  <path d="M333.057 245.525l.701 2.304c2.604 8.515 8.512 12.923 18.025 13.524 5.007.3 7.21 0 10.915-1.803 2.503-1.202 7.368-5.67 7.368-5.67l13.26 8.976-3.805 3.907c-2.103 2.103-6.309 5.109-9.313 6.611-7.184 3.593-21.688 4.9-30.542 1.904-6.508-2.204-10.314-4.508-14.62-9.016-7.31-7.514-10.514-17.03-9.713-29.152 1.402-22.138 19.927-36.764 42.659-33.559 15.02 2.104 24.433 12.122 27.137 28.951.6 3.607 1.101 8.014 1.101 9.818v3.205h-53.173zm-132.08-41.072H218v10.418l3.505-4.107c4.406-5.209 10.214-7.513 18.525-7.613 8.011 0 12.617 2.003 17.524 7.513l3.605 4.007 3.505-3.606c5.608-5.71 10.614-7.814 18.826-7.814 9.112 0 14.52 2.204 19.426 7.714 6.109 6.912 6.51 9.116 6.91 37.866l.4 25.745h-17.924l-.4-22.74c-.301-19.634-.602-23.34-2.204-26.646-4.706-9.617-17.624-8.616-23.031 1.803-1.903 3.606-2.103 6.01-2.404 25.845l-.4 21.738h-17.825v-22.74c0-20.035-.3-23.34-1.902-26.947-2.203-4.909-6.309-6.912-12.417-6.11-5.107.7-10.014 5.509-11.616 11.42-.6 2.103-1.102 12.822-1.102 24.142v20.235h-18.024v-70.123zM72.8 274.576H54.777v-70.123H72.8v70.123zm319.437-70.123h17.024v11.52l2.503-3.706c3.004-4.508 9.413-8.315 15.22-9.216 3.894-.564 7.299-.325 7.299-.325l.012 16.932-4.406.022c-8.912-.701-16.322 4.307-18.525 12.522-.601 2.104-1.102 12.522-1.102 23.14v19.234h-18.025v-70.123zm-309.423 0h17.023v10.418l3.505-4.107c4.406-5.209 10.214-7.513 18.525-7.613 8.011 0 12.618 2.003 17.524 7.513l3.605 4.007 3.505-3.606c5.608-5.71 10.615-7.814 18.826-7.814 9.112 0 14.52 2.204 19.427 7.714 6.108 6.912 6.508 9.116 6.909 37.866l.4 25.745H174.14l-.4-22.74c-.301-19.634-.601-23.34-2.204-26.646-4.706-9.617-17.624-8.616-23.031 1.803-1.903 3.606-2.103 6.01-2.403 25.845l-.4 21.738h-17.825v-22.74c0-20.035-.3-23.34-1.903-26.947-2.203-4.909-6.309-6.912-12.417-6.11-5.107.7-10.014 5.509-11.616 11.42-.6 2.103-1.101 12.822-1.101 24.142v20.235H82.815v-70.123zm284.39 25.345c0-3.907-3.305-8.916-7.21-10.92-9.614-5.109-23.132.702-26.337 11.42l-.6 2.204h34.146v-2.704zm-303.073-60.17c6.383 0 11.564 5.184 11.564 11.568 0 6.385-5.18 11.569-11.564 11.569-6.381 0-11.563-5.184-11.563-11.569 0-6.384 5.182-11.567 11.563-11.567z" />
</svg>
